# Blender v2.81 (sub 16) OBJ File: 'Sketchfab_2016_09_20_10_03_42.blend'
# www.blender.org
mtllib board_2.mtl
o ChessBoardFrame_Plane
v -24.000000 0.000000 -24.000000
v -24.000000 0.000000 24.000000
v 24.000000 0.000000 24.000000
v 24.000000 0.000000 -24.000000
v -24.000000 -1.000000 -24.000000
v -24.000000 -1.000000 24.000000
v 24.000000 -1.000000 24.000000
v 24.000000 -1.000000 -24.000000
v -31.199999 -3.000000 -31.199999
v -31.199999 -3.000000 31.199999
v 31.199999 -3.000000 31.199999
v 31.199999 -3.000000 -31.199999
v -29.699999 0.000000 -29.699999
v -31.199999 -1.500000 -31.199999
v -30.241251 -0.958747 -30.241251
v -31.199999 -1.500000 31.199999
v -29.699999 0.000000 29.699999
v -30.241251 -0.958747 30.241251
v 31.199999 -1.500000 31.199999
v 29.699999 0.000000 29.699999
v 30.241251 -0.958747 30.241251
v 31.199999 -1.500000 -31.199999
v 29.699999 0.000000 -29.699999
v 30.241251 -0.958747 -30.241251
vn 1.0000 0.0000 0.0000
vn 0.0000 0.0000 1.0000
vn 0.0000 0.0000 -1.0000
vn -1.0000 0.0000 0.0000
vn 0.0000 1.0000 0.0000
vn -0.4916 0.8708 0.0000
vn -0.8708 0.4916 0.0000
vn 0.0000 0.8708 0.4916
vn 0.0000 0.4916 0.8708
vn 0.4916 0.8708 0.0000
vn 0.8708 0.4916 0.0000
vn 0.0000 0.8708 -0.4916
vn 0.0000 0.4916 -0.8708
g ChessBoardFrame_Plane_Wood
usemtl Wood
s off
f 2//1 6//1 5//1 1//1
f 16//2 10//2 11//2 19//2
f 19//1 11//1 12//1 22//1
f 22//3 12//3 9//3 14//3
f 14//4 9//4 10//4 16//4
f 6//5 7//5 8//5 5//5
f 1//2 5//2 8//2 4//2
f 3//3 7//3 6//3 2//3
f 4//4 8//4 7//4 3//4
f 2//5 17//5 20//5 3//5
f 4//5 23//5 13//5 1//5
f 3//5 20//5 23//5 4//5
f 14//6 16//6 18//6 15//6
f 15//7 18//7 17//7 13//7
f 16//8 19//8 21//8 18//8
f 18//9 21//9 20//9 17//9
f 19//10 22//10 24//10 21//10
f 21//11 24//11 23//11 20//11
f 22//12 14//12 15//12 24//12
f 24//13 15//13 13//13 23//13
f 1//5 13//5 17//5 2//5
o ChessBoard_Cube
v -24.000000 -0.400000 24.000000
v -18.000000 -0.400000 24.000000
v -12.000000 -0.400000 24.000000
v -24.000000 -0.400000 18.000000
v -18.000000 -0.400000 18.000000
v -12.000000 -0.400000 18.000000
v -24.000000 -0.400000 12.000000
v -18.000000 -0.400000 12.000000
v -12.000000 -0.400000 12.000000
v -24.000000 -0.400000 12.000000
v -18.000000 -0.400000 12.000000
v -12.000000 -0.400000 12.000000
v -24.000000 -0.400000 6.000000
v -18.000000 -0.400000 6.000000
v -12.000000 -0.400000 6.000000
v -24.000000 -0.400000 0.000000
v -18.000000 -0.400000 0.000000
v -12.000000 -0.400000 0.000000
v -24.000000 -0.400000 0.000000
v -18.000000 -0.400000 0.000000
v -12.000000 -0.400000 0.000000
v -24.000000 -0.400000 -6.000000
v -18.000000 -0.400000 -6.000000
v -12.000000 -0.400000 -6.000000
v -24.000000 -0.400000 -12.000000
v -18.000000 -0.400000 -12.000000
v -12.000000 -0.400000 -12.000000
v -24.000000 -0.400000 -12.000000
v -18.000000 -0.400000 -12.000000
v -12.000000 -0.400000 -12.000000
v -24.000000 -0.400000 -18.000000
v -18.000000 -0.400000 -18.000000
v -12.000000 -0.400000 -18.000000
v -24.000000 -0.400000 -24.000000
v -18.000000 -0.400000 -24.000000
v -12.000000 -0.400000 -24.000000
v -12.000000 -0.400000 24.000000
v -6.000000 -0.400000 24.000000
v 0.000000 -0.400000 24.000000
v -12.000000 -0.400000 18.000000
v -6.000000 -0.400000 18.000000
v 0.000000 -0.400000 18.000000
v -12.000000 -0.400000 12.000000
v -6.000000 -0.400000 12.000000
v 0.000000 -0.400000 12.000000
v -12.000000 -0.400000 12.000000
v -6.000000 -0.400000 12.000000
v 0.000000 -0.400000 12.000000
v -12.000000 -0.400000 6.000000
v -6.000000 -0.400000 6.000000
v 0.000000 -0.400000 6.000000
v -12.000000 -0.400000 0.000000
v -6.000000 -0.400000 0.000000
v 0.000000 -0.400000 0.000000
v -12.000000 -0.400000 0.000000
v -6.000000 -0.400000 0.000000
v 0.000000 -0.400000 0.000000
v -12.000000 -0.400000 -6.000000
v -6.000000 -0.400000 -6.000000
v 0.000000 -0.400000 -6.000000
v -12.000000 -0.400000 -12.000000
v -6.000000 -0.400000 -12.000000
v 0.000000 -0.400000 -12.000000
v -12.000000 -0.400000 -12.000000
v -6.000000 -0.400000 -12.000000
v 0.000000 -0.400000 -12.000000
v -12.000000 -0.400000 -18.000000
v -6.000000 -0.400000 -18.000000
v 0.000000 -0.400000 -18.000000
v -12.000000 -0.400000 -24.000000
v -6.000000 -0.400000 -24.000000
v 0.000000 -0.400000 -24.000000
v 0.000000 -0.400000 24.000000
v 6.000000 -0.400000 24.000000
v 12.000000 -0.400000 24.000000
v 0.000000 -0.400000 18.000000
v 6.000000 -0.400000 18.000000
v 12.000000 -0.400000 18.000000
v 0.000000 -0.400000 12.000000
v 6.000000 -0.400000 12.000000
v 12.000000 -0.400000 12.000000
v 0.000000 -0.400000 12.000000
v 6.000000 -0.400000 12.000000
v 12.000000 -0.400000 12.000000
v 0.000000 -0.400000 6.000000
v 6.000000 -0.400000 6.000000
v 12.000000 -0.400000 6.000000
v 0.000000 -0.400000 0.000000
v 6.000000 -0.400000 0.000000
v 12.000000 -0.400000 0.000000
v 0.000000 -0.400000 0.000000
v 6.000000 -0.400000 0.000000
v 12.000000 -0.400000 0.000000
v 0.000000 -0.400000 -6.000000
v 6.000000 -0.400000 -6.000000
v 12.000000 -0.400000 -6.000000
v 0.000000 -0.400000 -12.000000
v 6.000000 -0.400000 -12.000000
v 12.000000 -0.400000 -12.000000
v 0.000000 -0.400000 -12.000000
v 6.000000 -0.400000 -12.000000
v 12.000000 -0.400000 -12.000000
v 0.000000 -0.400000 -18.000000
v 6.000000 -0.400000 -18.000000
v 12.000000 -0.400000 -18.000000
v 0.000000 -0.400000 -24.000000
v 6.000000 -0.400000 -24.000000
v 12.000000 -0.400000 -24.000000
v 12.000000 -0.400000 24.000000
v 18.000000 -0.400000 24.000000
v 24.000000 -0.400000 24.000000
v 12.000000 -0.400000 18.000000
v 18.000000 -0.400000 18.000000
v 24.000000 -0.400000 18.000000
v 12.000000 -0.400000 12.000000
v 18.000000 -0.400000 12.000000
v 24.000000 -0.400000 12.000000
v 12.000000 -0.400000 12.000000
v 18.000000 -0.400000 12.000000
v 24.000000 -0.400000 12.000000
v 12.000000 -0.400000 6.000000
v 18.000000 -0.400000 6.000000
v 24.000000 -0.400000 6.000000
v 12.000000 -0.400000 0.000000
v 18.000000 -0.400000 0.000000
v 24.000000 -0.400000 0.000000
v 12.000000 -0.400000 0.000000
v 18.000000 -0.400000 0.000000
v 24.000000 -0.400000 0.000000
v 12.000000 -0.400000 -6.000000
v 18.000000 -0.400000 -6.000000
v 24.000000 -0.400000 -6.000000
v 12.000000 -0.400000 -12.000000
v 18.000000 -0.400000 -12.000000
v 24.000000 -0.400000 -12.000000
v 12.000000 -0.400000 -12.000000
v 18.000000 -0.400000 -12.000000
v 24.000000 -0.400000 -12.000000
v 12.000000 -0.400000 -18.000000
v 18.000000 -0.400000 -18.000000
v 24.000000 -0.400000 -18.000000
v 12.000000 -0.400000 -24.000000
v 18.000000 -0.400000 -24.000000
v 24.000000 -0.400000 -24.000000
vn 0.0000 1.0000 0.0000
g ChessBoard_Cube_Board-White
usemtl Board-White
s off
f 26//14 27//14 30//14 29//14
f 28//14 29//14 32//14 31//14
f 35//14 36//14 39//14 38//14
f 37//14 38//14 41//14 40//14
f 44//14 45//14 48//14 47//14
f 46//14 47//14 50//14 49//14
f 53//14 54//14 57//14 56//14
f 55//14 56//14 59//14 58//14
f 62//14 63//14 66//14 65//14
f 64//14 65//14 68//14 67//14
f 71//14 72//14 75//14 74//14
f 73//14 74//14 77//14 76//14
f 80//14 81//14 84//14 83//14
f 82//14 83//14 86//14 85//14
f 89//14 90//14 93//14 92//14
f 91//14 92//14 95//14 94//14
f 98//14 99//14 102//14 101//14
f 100//14 101//14 104//14 103//14
f 107//14 108//14 111//14 110//14
f 109//14 110//14 113//14 112//14
f 116//14 117//14 120//14 119//14
f 118//14 119//14 122//14 121//14
f 125//14 126//14 129//14 128//14
f 127//14 128//14 131//14 130//14
f 134//14 135//14 138//14 137//14
f 136//14 137//14 140//14 139//14
f 143//14 144//14 147//14 146//14
f 145//14 146//14 149//14 148//14
f 152//14 153//14 156//14 155//14
f 154//14 155//14 158//14 157//14
f 161//14 162//14 165//14 164//14
f 163//14 164//14 167//14 166//14
g ChessBoard_Cube_Board-Black
usemtl Board-Black
f 25//14 26//14 29//14 28//14
f 29//14 30//14 33//14 32//14
f 34//14 35//14 38//14 37//14
f 38//14 39//14 42//14 41//14
f 43//14 44//14 47//14 46//14
f 47//14 48//14 51//14 50//14
f 52//14 53//14 56//14 55//14
f 56//14 57//14 60//14 59//14
f 61//14 62//14 65//14 64//14
f 65//14 66//14 69//14 68//14
f 70//14 71//14 74//14 73//14
f 74//14 75//14 78//14 77//14
f 79//14 80//14 83//14 82//14
f 83//14 84//14 87//14 86//14
f 88//14 89//14 92//14 91//14
f 92//14 93//14 96//14 95//14
f 97//14 98//14 101//14 100//14
f 101//14 102//14 105//14 104//14
f 106//14 107//14 110//14 109//14
f 110//14 111//14 114//14 113//14
f 115//14 116//14 119//14 118//14
f 119//14 120//14 123//14 122//14
f 124//14 125//14 128//14 127//14
f 128//14 129//14 132//14 131//14
f 133//14 134//14 137//14 136//14
f 137//14 138//14 141//14 140//14
f 142//14 143//14 146//14 145//14
f 146//14 147//14 150//14 149//14
f 151//14 152//14 155//14 154//14
f 155//14 156//14 159//14 158//14
f 160//14 161//14 164//14 163//14
f 164//14 165//14 168//14 167//14
