# Blender v2.81 (sub 16) OBJ File: 'ChessSet.blend'
# www.blender.org
mtllib board.mtl
o Board
v 4.999798 -0.549952 -5.040026
v 4.999798 0.116189 -5.040026
v 0.999799 -0.000000 -1.040026
v 0.999799 -0.000000 -2.040026
v 0.999799 -0.000000 -3.040026
v 0.999799 0.000000 -4.040026
v 1.999799 -0.000000 -1.040026
v 1.999799 -0.000000 -2.040026
v 1.999799 -0.000000 -3.040026
v 1.999799 0.000000 -4.040026
v 2.999799 -0.000000 -1.040026
v 2.999799 -0.000000 -2.040026
v 2.999799 -0.000000 -3.040026
v 2.999799 0.000000 -4.040026
v 3.999799 -0.000000 -1.040026
v 3.999799 -0.000000 -2.040026
v 3.999799 -0.000000 -3.040026
v 4.006153 0.000000 -4.037827
v 4.149799 0.116189 -1.040026
v 4.149799 0.116189 -2.040026
v 4.149799 0.116189 -3.040026
v 4.149798 0.116189 -4.040026
v 0.999799 0.116189 -4.190026
v 1.999799 0.116189 -4.190026
v 2.999799 0.116189 -4.190026
v 4.006153 0.116189 -4.187827
v 4.149798 0.116189 -4.190026
v 4.999798 -0.549952 -5.040026
v 4.999798 0.116189 -5.040026
v 4.149799 0.116189 -1.040026
v 4.149799 0.116189 -2.040026
v 4.149799 0.116189 -3.040026
v 4.149798 0.116189 -4.040026
v 0.999799 0.116189 -4.190026
v 1.999799 0.116189 -4.190026
v 2.999799 0.116189 -4.190026
v 4.006153 0.116189 -4.187827
v 4.149798 0.116189 -4.190026
v -5.000201 -0.549952 -5.040025
v -5.000201 0.116189 -5.040025
v -0.000202 -0.549952 -5.040026
v -0.000202 0.116189 -5.040026
v -0.000201 -0.000000 -1.040026
v -0.000201 -0.000000 -2.040026
v -0.000201 -0.000000 -3.040026
v -0.000201 0.000000 -4.040026
v -1.000201 -0.000000 -1.040025
v -1.000201 -0.000000 -2.040026
v -1.000201 -0.000000 -3.040025
v -1.000201 0.000000 -4.040026
v -2.000201 -0.000000 -1.040025
v -2.000201 -0.000000 -2.040025
v -2.000201 -0.000000 -3.040025
v -2.000201 0.000000 -4.040026
v -3.000201 -0.000000 -1.040025
v -3.000201 -0.000000 -2.040025
v -3.000201 -0.000000 -3.040025
v -3.000201 0.000000 -4.040025
v -4.000201 -0.000000 -1.040025
v -4.000201 -0.000000 -2.040025
v -4.000201 -0.000000 -3.040025
v -4.006556 0.000000 -4.037827
v -4.150202 0.116189 -1.040025
v -4.150202 0.116189 -2.040025
v -4.150202 0.116189 -3.040025
v -4.150202 0.116189 -4.040025
v -0.000201 0.116189 -4.190026
v -1.000201 0.116189 -4.190026
v -2.000201 0.116189 -4.190025
v -3.000201 0.116189 -4.190025
v -4.006556 0.116189 -4.187826
v -4.150202 0.116189 -4.190025
v -5.000201 -0.549952 -5.040025
v -5.000201 0.116189 -5.040025
v -0.000202 -0.549952 -5.040026
v -0.000202 0.116189 -5.040026
v -0.000201 0.000000 -4.040026
v -4.150202 0.116189 -1.040025
v -4.150202 0.116189 -2.040025
v -4.150202 0.116189 -3.040025
v -4.150202 0.116189 -4.040025
v -0.000201 0.116189 -4.190026
v -1.000201 0.116189 -4.190026
v -2.000201 0.116189 -4.190025
v -3.000201 0.116189 -4.190025
v -4.006556 0.116189 -4.187826
v -4.150202 0.116189 -4.190025
v 4.999799 -0.549953 4.959974
v 4.999799 0.116188 4.959974
v 4.999799 -0.549952 -0.040026
v 4.999799 0.116189 -0.040026
v 3.999799 -0.000000 -0.040026
v 2.999799 -0.000000 -0.040026
v 1.999799 -0.000000 -0.040026
v 0.999799 -0.000000 -0.040026
v 0.999799 -0.000000 0.959974
v 0.999799 -0.000000 1.959974
v 0.999799 -0.000001 2.959974
v 0.999799 -0.000001 3.959974
v 1.999799 -0.000000 0.959974
v 1.999799 -0.000000 1.959974
v 1.999799 -0.000001 2.959974
v 1.999799 -0.000001 3.959974
v 2.999799 -0.000000 0.959974
v 2.999799 -0.000000 1.959974
v 2.999799 -0.000001 2.959974
v 2.999799 -0.000001 3.959974
v 3.999799 -0.000000 0.959974
v 3.999799 -0.000000 1.959974
v 3.999799 -0.000001 2.959974
v 4.006154 -0.000001 3.957775
v 4.149799 0.116189 -0.040026
v 4.149799 0.116189 0.959974
v 4.149799 0.116188 1.959974
v 4.149799 0.116188 2.959974
v 4.149799 0.116188 3.959974
v 0.999799 0.116188 4.109974
v 1.999799 0.116188 4.109974
v 2.999799 0.116188 4.109974
v 4.006154 0.116188 4.107775
v 4.149799 0.116188 4.109974
v 4.999799 -0.549953 4.959974
v 4.999799 0.116188 4.959974
v 4.999799 -0.549952 -0.040026
v 4.999799 0.116189 -0.040026
v 3.999799 -0.000000 -0.040026
v 4.149799 0.116189 -0.040026
v 4.149799 0.116189 0.959974
v 4.149799 0.116188 1.959974
v 4.149799 0.116188 2.959974
v 4.149799 0.116188 3.959974
v 0.999799 0.116188 4.109974
v 1.999799 0.116188 4.109974
v 2.999799 0.116188 4.109974
v 4.006154 0.116188 4.107775
v 4.149799 0.116188 4.109974
v -5.000200 -0.549953 4.959975
v -5.000200 0.116188 4.959975
v -5.000201 -0.549952 -0.040025
v -5.000201 0.116189 -0.040025
v -0.000201 -0.549953 4.959974
v -0.000201 0.116188 4.959974
v -0.000201 -0.549952 -0.040026
v -0.000201 -0.000000 -0.040026
v -4.000201 -0.000000 -0.040025
v -3.000201 -0.000000 -0.040025
v -2.000201 -0.000000 -0.040025
v -1.000201 -0.000000 -0.040025
v -0.000201 -0.000000 0.959975
v -0.000201 -0.000000 1.959975
v -0.000201 -0.000001 2.959975
v -0.000201 -0.000001 3.959975
v -1.000201 -0.000000 0.959975
v -1.000201 -0.000000 1.959975
v -1.000201 -0.000001 2.959975
v -1.000201 -0.000001 3.959975
v -2.000201 -0.000000 0.959975
v -2.000201 -0.000000 1.959975
v -2.000201 -0.000001 2.959975
v -2.000201 -0.000001 3.959975
v -3.000201 -0.000000 0.959975
v -3.000201 -0.000000 1.959975
v -3.000201 -0.000001 2.959975
v -3.000201 -0.000001 3.959975
v -4.000201 -0.000000 0.959975
v -4.000201 -0.000000 1.959975
v -4.000201 -0.000001 2.959975
v -4.006556 -0.000001 3.957775
v -4.150201 0.116189 -0.040025
v -4.150201 0.116189 0.959975
v -4.150201 0.116188 1.959975
v -4.150201 0.116188 2.959975
v -4.150201 0.116188 3.959975
v -0.000201 0.116188 4.109975
v -1.000201 0.116188 4.109975
v -2.000201 0.116188 4.109975
v -3.000201 0.116188 4.109975
v -4.006556 0.116188 4.107776
v -4.150201 0.116188 4.109975
v -5.000200 -0.549953 4.959975
v -5.000200 0.116188 4.959975
v -5.000201 -0.549952 -0.040025
v -5.000201 0.116189 -0.040025
v -0.000201 -0.549953 4.959974
v -0.000201 0.116188 4.959974
v -0.000201 -0.549952 -0.040026
v -4.000201 -0.000000 -0.040025
v -0.000201 -0.000001 3.959975
v -4.150201 0.116189 -0.040025
v -4.150201 0.116189 0.959975
v -4.150201 0.116188 1.959975
v -4.150201 0.116188 2.959975
v -4.150201 0.116188 3.959975
v -0.000201 0.116188 4.109975
v -1.000201 0.116188 4.109975
v -2.000201 0.116188 4.109975
v -3.000201 0.116188 4.109975
v -4.006556 0.116188 4.107776
v -4.150201 0.116188 4.109975
vt 0.346223 0.711303
vt 0.228380 0.711303
vt 0.228380 0.593459
vt 0.346224 0.593459
vt 0.346224 0.475615
vt 0.228380 0.475615
vt 0.228380 0.357772
vt 0.346224 0.357772
vt 0.464067 0.593459
vt 0.464067 0.475615
vt 0.464067 0.357772
vt 0.346224 0.239928
vt 0.464067 0.239928
vt 0.581911 0.711303
vt 0.464067 0.711303
vt 0.581911 0.593459
vt 0.581911 0.475615
vt 0.581911 0.357772
vt 0.699754 0.593459
vt 0.699754 0.475615
vt 0.699754 0.357772
vt 0.581911 0.239928
vt 0.699754 0.239928
vt 0.346224 0.593459
vt 0.346224 0.475615
vt 0.228380 0.475615
vt 0.228380 0.593459
vt 0.346224 0.357772
vt 0.346224 0.239928
vt 0.227631 0.240187
vt 0.228380 0.357772
vt 0.464067 0.711303
vt 0.464067 0.593459
vt 0.346223 0.711303
vt 0.464067 0.475615
vt 0.464067 0.357772
vt 0.581911 0.593459
vt 0.581911 0.475615
vt 0.581911 0.357772
vt 0.581911 0.239928
vt 0.464067 0.239928
vt 0.699754 0.711303
vt 0.581911 0.711303
vt 0.346224 0.593459
vt 0.346224 0.475615
vt 0.228380 0.475615
vt 0.228380 0.593459
vt 0.346224 0.357772
vt 0.346224 0.239928
vt 0.227631 0.240187
vt 0.228380 0.357772
vt 0.464067 0.593459
vt 0.464067 0.475615
vt 0.464067 0.357772
vt 0.581911 0.593459
vt 0.581911 0.475615
vt 0.581911 0.357772
vt 0.581911 0.239928
vt 0.464067 0.239928
vt 0.699754 0.593459
vt 0.699754 0.475615
vt 0.699754 0.357772
vt 0.228380 0.711303
vt 0.228380 0.593459
vt 0.346224 0.593459
vt 0.346224 0.475615
vt 0.228380 0.475615
vt 0.228380 0.357772
vt 0.346224 0.357772
vt 0.464067 0.593459
vt 0.464067 0.475615
vt 0.464067 0.357772
vt 0.346224 0.239928
vt 0.464067 0.239928
vt 0.581911 0.593459
vt 0.581911 0.475615
vt 0.581911 0.357772
vt 0.581911 0.239928
vt 0.699754 0.239928
vt 0.263045 0.965772
vt 0.486053 0.857723
vt 0.486053 0.965772
vt 0.961837 0.856615
vt 0.961837 0.949395
vt 0.869057 0.949395
vt 0.798049 0.159925
vt 0.642992 0.160501
vt 0.797559 0.028126
vt 0.487934 0.161077
vt 0.332876 0.161653
vt 0.022271 0.031006
vt 0.176834 0.162574
vt 0.040037 0.965772
vt 0.040037 0.857723
vt 0.263045 0.857723
vt 0.227631 0.240187
vt 0.156950 0.805805
vt 0.025151 0.806295
vt 0.156374 0.650747
vt 0.155798 0.495689
vt 0.155222 0.340632
vt 0.154646 0.185575
vt 0.879518 0.381255
vt 0.935008 0.381163
vt 0.935219 0.504920
vt 0.879986 0.504742
vt 0.879313 0.257498
vt 0.934803 0.257406
vt 0.879108 0.133741
vt 0.934597 0.133649
vt 0.878902 0.009985
vt 0.934392 0.009893
vt 0.869057 0.856615
vt 0.154560 0.162316
vt 0.929507 0.529779
vt 0.823873 0.615928
vt 0.873393 0.640965
vt 0.768033 0.726371
vt 0.817553 0.751408
vt 0.712193 0.836814
vt 0.761713 0.861852
vt 0.656353 0.947258
vt 0.705873 0.972295
vt 0.944847 0.520791
vt 0.263045 0.965772
vt 0.486053 0.965772
vt 0.486053 0.857723
vt 0.869057 0.949395
vt 0.642992 0.160501
vt 0.487934 0.161077
vt 0.022271 0.031006
vt 0.332876 0.161653
vt 0.176834 0.162574
vt 0.263045 0.857723
vt 0.156950 0.805805
vt 0.156374 0.650747
vt 0.025151 0.806295
vt 0.155798 0.495689
vt 0.155222 0.340632
vt 0.154646 0.185575
vt 0.879518 0.381255
vt 0.879986 0.504742
vt 0.935219 0.504920
vt 0.935008 0.381163
vt 0.879313 0.257498
vt 0.934803 0.257406
vt 0.879108 0.133741
vt 0.934597 0.133649
vt 0.878902 0.009985
vt 0.934392 0.009893
vt 0.869057 0.856615
vt 0.154560 0.162316
vt 0.929507 0.529779
vt 0.823873 0.615928
vt 0.873393 0.640965
vt 0.768033 0.726371
vt 0.817553 0.751408
vt 0.712193 0.836814
vt 0.761713 0.861852
vt 0.944847 0.520791
vt 0.263045 0.965772
vt 0.869057 0.949395
vt 0.961837 0.949395
vt 0.798049 0.159925
vt 0.797559 0.028126
vt 0.642992 0.160501
vt 0.487934 0.161077
vt 0.022271 0.031006
vt 0.332876 0.161653
vt 0.176834 0.162574
vt 0.040037 0.965772
vt 0.040037 0.857723
vt 0.263045 0.857723
vt 0.156374 0.650747
vt 0.155798 0.495689
vt 0.155222 0.340632
vt 0.154646 0.185575
vt 0.879518 0.381255
vt 0.879986 0.504742
vt 0.935219 0.504920
vt 0.935008 0.381163
vt 0.879313 0.257498
vt 0.934803 0.257406
vt 0.879108 0.133741
vt 0.934597 0.133649
vt 0.154560 0.162316
vt 0.929507 0.529779
vt 0.823873 0.615928
vt 0.873393 0.640965
vt 0.768033 0.726371
vt 0.817553 0.751408
vt 0.712193 0.836814
vt 0.761713 0.861852
vt 0.656353 0.947258
vt 0.705873 0.972295
vt 0.944847 0.520791
vt 0.263045 0.965772
vt 0.869057 0.949395
vt 0.642992 0.160501
vt 0.487934 0.161077
vt 0.332876 0.161653
vt 0.022271 0.031006
vt 0.176834 0.162574
vt 0.263045 0.857723
vt 0.227631 0.240187
vt 0.156374 0.650747
vt 0.155798 0.495689
vt 0.155222 0.340632
vt 0.154646 0.185575
vt 0.879518 0.381255
vt 0.935008 0.381163
vt 0.935219 0.504920
vt 0.879986 0.504742
vt 0.879313 0.257498
vt 0.934803 0.257406
vt 0.879108 0.133741
vt 0.934597 0.133649
vt 0.154560 0.162316
vt 0.929507 0.529779
vt 0.823873 0.615928
vt 0.873393 0.640965
vt 0.768033 0.726371
vt 0.817553 0.751408
vt 0.712193 0.836814
vt 0.761713 0.861852
vt 0.944847 0.520791
vn 0.0000 1.0000 0.0000
vn 1.0000 0.0000 -0.0000
vn -0.0000 -1.0000 -0.0000
vn 0.0000 0.0000 -1.0000
vn -0.6206 0.7842 -0.0020
vn -0.6124 0.7906 0.0000
vn -0.5331 0.6689 0.5181
vn -0.0013 0.7906 0.6124
vn 0.0000 0.7906 0.6124
vn -1.0000 0.0000 0.0000
vn 0.6206 0.7842 -0.0020
vn 0.6124 0.7906 0.0000
vn 0.5331 0.6689 0.5181
vn 0.0013 0.7906 0.6124
vn 0.0000 0.0000 1.0000
vn -0.6206 0.7842 0.0020
vn -0.5331 0.6689 -0.5181
vn -0.0013 0.7906 -0.6124
vn 0.0000 0.7906 -0.6124
vn 0.6206 0.7842 0.0020
vn 0.5331 0.6689 -0.5181
vn 0.0013 0.7906 -0.6124
usemtl Lights
s off
f 93/1/1 92/2/1 15/3/1 11/4/1
f 12/5/1 16/6/1 17/7/1 13/8/1
f 7/9/1 11/4/1 12/5/1 8/10/1
f 9/11/1 13/8/1 14/12/1 10/13/1
f 95/14/1 94/15/1 7/9/1 3/16/1
f 4/17/1 8/10/1 9/11/1 5/18/1
f 43/19/1 3/16/1 4/17/1 44/20/1
f 45/21/1 5/18/1 6/22/1 46/23/1
f 55/24/1 56/25/1 60/26/1 59/27/1
f 57/28/1 58/29/1 62/30/1 61/31/1
f 147/32/1 51/33/1 55/24/1 146/34/1
f 52/35/1 53/36/1 57/28/1 56/25/1
f 47/37/1 48/38/1 52/35/1 51/33/1
f 49/39/1 50/40/1 54/41/1 53/36/1
f 144/42/1 43/19/1 47/37/1 148/43/1
f 44/20/1 45/21/1 49/39/1 48/38/1
f 104/44/1 105/45/1 109/46/1 108/47/1
f 106/48/1 107/49/1 111/50/1 110/51/1
f 94/15/1 100/52/1 104/44/1 93/1/1
f 101/53/1 102/54/1 106/48/1 105/45/1
f 96/55/1 97/56/1 101/53/1 100/52/1
f 98/57/1 99/58/1 103/59/1 102/54/1
f 144/42/1 149/60/1 96/55/1 95/14/1
f 150/61/1 151/62/1 98/57/1 97/56/1
f 146/34/1 145/63/1 165/64/1 161/65/1
f 162/66/1 166/67/1 167/68/1 163/69/1
f 157/70/1 161/65/1 162/66/1 158/71/1
f 159/72/1 163/69/1 164/73/1 160/74/1
f 148/43/1 147/32/1 157/70/1 153/75/1
f 154/76/1 158/71/1 159/72/1 155/77/1
f 149/60/1 153/75/1 154/76/1 150/61/1
f 151/62/1 155/77/1 156/78/1 152/79/1
usemtl Darks
f 1/80/2 91/81/2 90/82/2
f 143/83/3 41/84/3 1/85/3
f 67/86/1 23/87/1 42/88/1
f 23/87/1 24/89/1 42/88/1
f 24/89/1 25/90/1 2/91/1 42/88/1
f 25/90/1 26/92/1 2/91/1
f 41/93/4 42/94/4 1/80/4
f 1/80/4 42/94/4 2/95/4
f 11/4/1 15/3/1 16/6/1 12/5/1
f 13/8/1 17/7/1 18/96/1 14/12/1
f 94/15/1 93/1/1 11/4/1 7/9/1
f 8/10/1 12/5/1 13/8/1 9/11/1
f 3/16/1 7/9/1 8/10/1 4/17/1
f 5/18/1 9/11/1 10/13/1 6/22/1
f 144/42/1 95/14/1 3/16/1 43/19/1
f 44/20/1 4/17/1 5/18/1 45/21/1
f 112/97/1 91/98/1 19/99/1
f 19/99/1 91/98/1 20/100/1
f 20/100/1 91/98/1 2/91/1 21/101/1
f 21/101/1 2/91/1 22/102/1
f 1/80/2 2/95/2 91/81/2
f 17/103/5 21/104/5 22/105/5 18/106/5
f 16/107/6 20/108/6 21/104/6 17/103/6
f 15/109/6 19/110/6 20/108/6 16/107/6
f 92/111/6 112/112/6 19/110/6 15/109/6
f 90/113/3 143/83/3 1/85/3
f 26/92/1 27/114/1 2/91/1
f 18/106/7 22/105/7 26/115/7
f 14/116/8 18/106/8 26/115/8 25/117/8
f 10/118/9 14/116/9 25/117/9 24/119/9
f 6/120/9 10/118/9 24/119/9 23/121/9
f 46/122/9 6/120/9 23/121/9 67/123/9
f 22/102/1 2/91/1 27/114/1
f 26/115/1 22/105/1 27/124/1
f 39/125/10 139/126/10 140/127/10
f 143/83/3 39/128/3 41/84/3
f 67/86/1 42/88/1 68/129/1
f 68/129/1 42/88/1 69/130/1
f 69/130/1 42/88/1 40/131/1 70/132/1
f 70/132/1 40/131/1 71/133/1
f 41/93/4 39/125/4 42/94/4
f 39/125/4 40/134/4 42/94/4
f 146/34/1 55/24/1 59/27/1 145/63/1
f 56/25/1 57/28/1 61/31/1 60/26/1
f 51/33/1 52/35/1 56/25/1 55/24/1
f 53/36/1 54/41/1 58/29/1 57/28/1
f 148/43/1 47/37/1 51/33/1 147/32/1
f 48/38/1 49/39/1 53/36/1 52/35/1
f 43/19/1 44/20/1 48/38/1 47/37/1
f 45/21/1 46/23/1 50/40/1 49/39/1
f 169/135/1 63/136/1 140/137/1
f 63/136/1 64/138/1 140/137/1
f 64/138/1 65/139/1 40/131/1 140/137/1
f 65/139/1 66/140/1 40/131/1
f 39/125/10 140/127/10 40/134/10
f 61/141/11 62/142/11 66/143/11 65/144/11
f 60/145/12 61/141/12 65/144/12 64/146/12
f 59/147/12 60/145/12 64/146/12 63/148/12
f 145/149/12 59/147/12 63/148/12 169/150/12
f 139/151/3 39/128/3 143/83/3
f 71/133/1 40/131/1 72/152/1
f 62/142/13 71/153/13 66/143/13
f 58/154/14 70/155/14 71/153/14 62/142/14
f 54/156/9 69/157/9 70/155/9 58/154/9
f 50/158/9 68/159/9 69/157/9 54/156/9
f 46/122/9 67/123/9 68/159/9 50/158/9
f 66/140/1 72/152/1 40/131/1
f 71/153/1 72/160/1 66/143/1
f 88/161/2 90/82/2 91/81/2
f 143/83/3 88/162/3 141/163/3
f 174/164/1 142/165/1 117/166/1
f 117/166/1 142/165/1 118/167/1
f 118/167/1 142/165/1 89/168/1 119/169/1
f 119/169/1 89/168/1 120/170/1
f 141/171/15 88/161/15 142/172/15
f 88/161/15 89/173/15 142/172/15
f 93/1/1 104/44/1 108/47/1 92/2/1
f 105/45/1 106/48/1 110/51/1 109/46/1
f 100/52/1 101/53/1 105/45/1 104/44/1
f 102/54/1 103/59/1 107/49/1 106/48/1
f 95/14/1 96/55/1 100/52/1 94/15/1
f 97/56/1 98/57/1 102/54/1 101/53/1
f 149/60/1 150/61/1 97/56/1 96/55/1
f 151/62/1 152/79/1 99/58/1 98/57/1
f 112/97/1 113/174/1 91/98/1
f 113/174/1 114/175/1 91/98/1
f 114/175/1 115/176/1 89/168/1 91/98/1
f 115/176/1 116/177/1 89/168/1
f 88/161/2 91/81/2 89/173/2
f 110/178/16 111/179/16 116/180/16 115/181/16
f 109/182/6 110/178/6 115/181/6 114/183/6
f 108/184/6 109/182/6 114/183/6 113/185/6
f 92/111/6 108/184/6 113/185/6 112/112/6
f 90/113/3 88/162/3 143/83/3
f 120/170/1 89/168/1 121/186/1
f 111/179/17 120/187/17 116/180/17
f 107/188/18 119/189/18 120/187/18 111/179/18
f 103/190/19 118/191/19 119/189/19 107/188/19
f 99/192/19 117/193/19 118/191/19 103/190/19
f 152/194/19 174/195/19 117/193/19 99/192/19
f 116/177/1 121/186/1 89/168/1
f 120/187/1 121/196/1 116/180/1
f 137/197/10 140/127/10 139/126/10
f 143/83/3 141/163/3 137/198/3
f 174/164/1 175/199/1 142/165/1
f 175/199/1 176/200/1 142/165/1
f 176/200/1 177/201/1 138/202/1 142/165/1
f 177/201/1 178/203/1 138/202/1
f 141/171/15 142/172/15 137/197/15
f 137/197/15 142/172/15 138/204/15
f 161/65/1 165/64/1 166/67/1 162/66/1
f 163/69/1 167/68/1 168/205/1 164/73/1
f 147/32/1 146/34/1 161/65/1 157/70/1
f 158/71/1 162/66/1 163/69/1 159/72/1
f 153/75/1 157/70/1 158/71/1 154/76/1
f 155/77/1 159/72/1 160/74/1 156/78/1
f 144/42/1 148/43/1 153/75/1 149/60/1
f 150/61/1 154/76/1 155/77/1 151/62/1
f 169/135/1 140/137/1 170/206/1
f 170/206/1 140/137/1 171/207/1
f 171/207/1 140/137/1 138/202/1 172/208/1
f 172/208/1 138/202/1 173/209/1
f 137/197/10 138/204/10 140/127/10
f 167/210/20 172/211/20 173/212/20 168/213/20
f 166/214/12 171/215/12 172/211/12 167/210/12
f 165/216/12 170/217/12 171/215/12 166/214/12
f 145/149/12 169/150/12 170/217/12 165/216/12
f 139/151/3 143/83/3 137/198/3
f 178/203/1 179/218/1 138/202/1
f 168/213/21 173/212/21 178/219/21
f 164/220/22 168/213/22 178/219/22 177/221/22
f 160/222/19 164/220/19 177/221/19 176/223/19
f 156/224/19 160/222/19 176/223/19 175/225/19
f 152/194/19 156/224/19 175/225/19 174/195/19
f 173/209/1 138/202/1 179/218/1
f 178/219/1 173/212/1 179/226/1
l 125 124
l 82 76
l 76 75
l 127 126
l 125 127
l 76 29
l 32 33
l 31 32
l 30 31
l 127 30
l 77 82
l 33 38
l 38 37
l 37 36
l 36 35
l 35 34
l 34 82
l 186 124
l 28 75
l 75 186
l 29 125
l 124 28
l 183 182
l 189 187
l 183 189
l 76 74
l 80 81
l 79 80
l 78 79
l 189 78
l 81 87
l 87 86
l 86 85
l 85 84
l 84 83
l 83 82
l 186 182
l 73 75
l 74 183
l 182 73
l 194 185
l 185 184
l 185 123
l 130 131
l 129 130
l 128 129
l 127 128
l 188 194
l 131 136
l 136 135
l 135 134
l 134 133
l 133 132
l 132 194
l 122 184
l 184 186
l 123 125
l 124 122
l 185 181
l 192 193
l 191 192
l 190 191
l 189 190
l 193 199
l 199 198
l 198 197
l 197 196
l 196 195
l 195 194
l 180 184
l 181 183
l 182 180
